<svg width="213" height="35" viewBox="0 0 213 35" fill="none" xmlns="http://www.w3.org/2000/svg"><path d="M4.85991 12.3442H6.47988C8.24712 12.3442 9.64618 13.6472 9.64618 15.2931C9.64618 16.9389 8.24712 18.3105 6.47988 18.3105H4.85991C4.85991 16.2531 4.85991 13.9215 4.85991 12.3442ZM12.6652 22.5623C12.3707 21.3279 11.6343 20.2306 10.6034 19.4077C12.0025 18.3791 12.8125 16.8703 12.8125 15.1559C12.8125 12.1385 10.2353 9.73828 6.99532 9.73828H0V12.2756H1.84087V22.5623H0V25.0997H4.93354V20.7793H6.55351C7.51077 20.7793 8.39439 21.1907 8.98347 21.8765C9.94072 22.9052 9.86709 24.4825 9.94072 25.1682H14.5061V22.6309H12.6652V22.5623Z" fill="#7300E0"></path><path d="M26.0668 22.5616H22.6796V18.7898H27.3186V16.1839H22.6796V12.3435H26.0668V13.5779H28.9386V9.80615H17.7461V12.3435H19.587V22.5616H17.7461V25.0989H29.0122V21.0529H26.0668V22.5616Z" fill="#7300E0"></path><path d="M60.6022 22.5616H57.2149V12.3435H59.1295V9.80615H52.2078V12.3435H54.1223V22.5616H52.2078V25.0989H63.5476V21.0529H60.6022V22.5616Z" fill="#7300E0"></path><path d="M38.4376 19.7506L40.573 13.9901L42.7084 19.7506H38.4376ZM47.1265 22.5623L42.1193 9.73828H39.1003L34.0931 22.5623H32.3995V25.0996H36.3758L37.4803 22.2194H43.7393L44.8438 25.0996H48.8201V22.5623H47.1265Z" fill="#7300E0"></path><path d="M96.683 0.411467C96.7566 0.480044 98.892 3.15457 98.9657 3.15457C100.07 2.33164 101.396 1.57728 102.795 0.960086C100.807 0.342889 98.8184 0 96.683 0C94.6212 0 92.5594 0.342889 90.5713 0.960086C91.9704 1.57728 93.2958 2.33164 94.4003 3.15457C94.4739 3.15457 96.6094 0.480044 96.683 0.411467Z" fill="#7300E0"></path><path d="M85.4163 14.8818C84.3117 15.8419 80.3355 18.9279 79.9673 25.0999C83.8699 31.9576 90.4234 34.5636 96.0197 34.7693C92.8534 32.4377 85.4899 25.8542 85.4163 14.8818Z" fill="#7300E0"></path><path d="M92.4122 5.82903V3.4974C91.1604 2.67447 89.1723 1.92011 88.7304 1.78296C85.4905 3.22309 82.8397 5.41757 80.9988 8.22925C84.3124 6.2405 88.1414 5.34899 92.4122 5.82903Z" fill="#7300E0"></path><path d="M96.6834 6.85815C97.4934 6.58384 98.5979 6.24095 99.5552 6.03522C99.5552 5.96664 99.5552 4.11505 99.5552 4.11505C99.2606 4.32078 98.9661 4.52651 98.7452 4.80082L96.6834 2.33203L94.6216 4.80082C94.3271 4.59509 94.1062 4.32078 93.8116 4.11505C93.8116 4.18362 93.8116 5.96664 93.8116 6.03522C94.7689 6.24095 95.8734 6.51526 96.6834 6.85815Z" fill="#7300E0"></path><path d="M101.322 18.3782C100.953 19.064 100.07 19.6126 99.1125 19.6126C98.4497 19.6126 97.8607 19.4069 97.4189 19.064V16.2523L99.4806 15.3608C100.364 16.4581 100.806 17.2124 101.322 18.3782ZM102.058 22.2872C102.058 24.2073 101.837 25.0988 101.174 26.6761C99.6279 27.2247 98.2288 27.5676 96.6825 27.5676C95.0625 27.5676 93.7371 27.2247 92.1908 26.6761C91.5281 25.0988 91.3071 24.2073 91.3071 22.2872C91.3071 21.8757 91.3072 21.4642 91.3808 21.0528C92.7799 22.15 94.6944 22.8358 96.6825 22.8358C98.6706 22.8358 100.512 22.15 101.984 21.0528C102.058 21.4642 102.058 21.8757 102.058 22.2872ZM93.8844 15.4294L95.9462 16.3209V19.1326C95.5043 19.4755 94.9153 19.6812 94.2525 19.6812C93.2953 19.6812 92.4853 19.1326 92.0435 18.4468C92.6326 17.2124 93.0008 16.4581 93.8844 15.4294ZM113.987 10.9719C110.82 8.29735 106.034 6.3086 100.364 7.26869C100.806 7.47442 102.647 8.09162 104.267 10.1489C101.837 9.6689 99.7752 10.3547 98.3761 11.5891L98.8179 13.6464H94.5471L94.9889 11.5891C93.6635 10.2861 91.5281 9.60032 89.0981 10.1489C90.7181 8.09162 92.5589 7.47442 93.0008 7.26869C87.3309 6.3086 82.5446 8.29735 79.3783 10.9719C78.421 13.3721 78.0529 15.3608 78.0529 17.3496C78.0529 18.584 78.3474 20.7785 78.8628 22.4243C80.3355 15.9095 85.6373 13.0978 85.6373 13.0978C89.6135 10.629 92.5589 11.6576 93.2953 12.1377C93.2953 12.2748 92.8535 14.2636 92.8535 14.2636C90.939 16.3895 89.7608 19.4755 89.7608 22.4929C89.0245 21.9443 88.3617 21.6014 87.7727 21.2585C88.2145 22.7672 90.129 28.7335 96.6089 33.4653C103.162 28.7335 105.003 22.8358 105.445 21.2585C104.856 21.5328 104.193 21.9443 103.457 22.4929C103.457 19.4755 102.279 16.4581 100.364 14.2636C100.364 14.195 99.9961 12.2063 99.9224 12.1377C100.659 11.5891 103.604 10.5604 107.58 13.0978C107.58 13.0978 112.882 15.9095 114.355 22.4243C114.87 20.7785 115.165 18.584 115.165 17.3496C115.312 15.3608 115.018 13.3721 113.987 10.9719Z" fill="#7300E0"></path><path d="M107.949 14.8818C107.875 25.8542 100.585 32.4377 97.3453 34.7007C102.942 34.495 109.421 31.8891 113.324 25.0313C113.03 18.8593 109.127 15.8419 107.949 14.8818Z" fill="#7300E0"></path><path d="M101.028 5.82903C105.298 5.34899 109.127 6.2405 112.515 8.22925C110.674 5.41757 107.949 3.22309 104.783 1.78296C104.341 1.92011 102.353 2.67447 101.101 3.4974V5.82903H101.028Z" fill="#7300E0"></path><path d="M190.347 22.5616H185.266L193.071 11.7263L193.145 11.6577V9.80615H181.511V13.4408H184.456V12.3435H188.948L181.069 23.1102V25.0989H193.219V21.19H190.347V22.5616Z" fill="#7300E0"></path><path d="M155.517 22.5616H152.13V12.3435H154.045V9.80615H147.197V12.3435H149.038V22.5616H147.197V25.0989H158.463V21.0529H155.517V22.5616Z" fill="#7300E0"></path><path d="M190.347 22.5616H185.266L193.071 11.7263L193.145 11.6577V9.80615H181.511V13.4408H184.456V12.3435H188.948L181.069 23.1102V25.0989H193.219V21.19H190.347V22.5616Z" fill="#7300E0"></path><path d="M138.065 18.2412H136.445C136.445 16.2524 136.445 13.9208 136.445 12.3435H138.065C138.286 12.3435 138.507 12.3435 138.728 12.4121C138.949 12.4807 139.096 12.4807 139.317 12.5493C139.538 12.6178 139.685 12.6864 139.832 12.8236C139.98 12.8921 140.127 13.0293 140.274 13.1665C140.863 13.7151 141.232 14.4694 141.232 15.2238C141.232 16.8696 139.832 18.2412 138.065 18.2412ZM138.507 9.80615H131.512V12.3435H133.353V22.6301H131.512V25.1675H138.654V22.6301H136.445V20.71H138.581C139.538 20.71 140.495 20.5042 141.305 20.0928C141.6 19.9556 141.968 19.7499 142.262 19.4756C142.557 19.2698 142.852 18.9955 143.072 18.7212C143.441 18.3098 143.735 17.8983 143.956 17.3497C144.251 16.7325 144.398 15.9096 144.398 15.1552C144.324 12.2064 141.747 9.80615 138.507 9.80615Z" fill="#7300E0"></path><path d="M167.445 19.7506L169.581 13.9901L171.716 19.7506H167.445ZM176.134 22.5623L171.127 9.73828H169.581H168.034L163.027 22.5623H161.333V25.0996H165.31L166.414 22.2194H172.673L173.778 25.0996H177.754V22.5623H176.134Z" fill="#7300E0"></path><path d="M202.569 19.7506L204.705 13.9901L206.84 19.7506H202.569ZM211.258 22.5623L206.251 9.73828H204.705H203.158L198.151 22.5623H196.458V25.0996H200.434L201.538 22.2194H207.797L208.902 25.0996H212.878V22.5623H211.258Z" fill="#7300E0"></path></svg>